<?xml version="1.0" encoding="UTF-8"?>
<svg id="Layer_1" data-name="Layer 1" xmlns="http://www.w3.org/2000/svg" xmlns:xlink="http://www.w3.org/1999/xlink" viewBox="0 0 593.14 595.28">
  <defs>
    <style>
      .cls-1 {
        fill: url(#linear-gradient);
      }
    </style>
    <linearGradient id="linear-gradient" x1="296.57" y1="595.28" x2="296.57" y2="0" gradientUnits="userSpaceOnUse">
      <stop offset="0" stop-color="#6bcff6"/>
      <stop offset="1" stop-color="#73c8b6"/>
    </linearGradient>
  </defs>
  <path class="cls-1" d="M390.13,202.67c-6.53-6.53-13.12-13-19.71-19.28,48.3-37.6,93.09-64.56,128.09-77.43,29.8-11,52.53-11.73,64.26,0,3.75,3.75,6.23,8.7,7.37,14.81,1.15,5.74,1.15,12.45,0,20.19-.36,2.72-.91,5.62-1.57,8.58-.24,1.15.42,2.24,1.51,2.66h.06c1.09.36,2.24-.18,2.72-1.21,23.39-50.17,26.6-85.83,9.31-103.18-3.32-3.32-7.37-5.8-12.03-7.62-2.3-.85-4.78-1.51-7.37-2.05-1.51-.3-3.02-.54-4.59-.73,0,0-22.43-4.05-58.27,8.52,1.45-.91,26.96-16.99,60.14-14.2-1.63-7.68-7.74-16.26-12.57-21.1-13.42-13.42-38.38-13.78-71.03-3.08-47.69,15.53-111.71,54.52-179.83,110.26C228.32,61.95,164.12,22.9,116.37,7.43c-3.32-1.09-6.53-2.06-9.73-2.9-.91-.24-1.81-.48-2.66-.67-3.2-.85-6.35-1.51-9.37-2.05-.6-.12-1.15-.18-1.69-.3-3.02-.48-5.98-.91-8.76-1.15-.24,0-.42-.06-.6-.06-3.14-.24-6.17-.3-9.01-.24-.18,0-.36.06-.54.06-7.5.24-13.96,1.69-19.46,4.41-3.26,1.57-6.1,3.63-8.58,6.1-.91.91-1.75,1.87-2.72,2.96-.54.73-1.21,1.39-1.69,2.18-.06.06-.12.12-.18.18-2.84,4.41-4.59,9.67-5.62,15.66,6.65-.36,12.94,0,18.8.85,22.37,3.08,37.84,12.81,38.99,13.48-15.9-5.62-29.2-7.86-38.99-8.7-12.33-1.09-19.28.18-19.28.18-1.09.12-2.12.36-3.2.54-8.58,1.39-15.78,4.59-21.04,9.85-17.35,17.35-14.14,53.01,9.25,103.18.54,1.03,1.69,1.57,2.84,1.21,1.09-.42,1.69-1.51,1.45-2.66-4.59-20.49-2.6-35.12,5.86-43.58,5.68-5.68,13.84-8.4,24.12-8.52,36.21-.42,98.53,31.8,168.16,86.02-6.59,6.29-13.12,12.69-19.65,19.22-61.96,61.96-113.16,125.13-148.52,180.68C5.45,460.36-13.41,522.68,11.01,547.1c4.78,4.78,10.94,7.86,18.44,9.49v-.12c-.24-29.68,13.66-51.74,14.51-53.07-9.37,26.72-9.49,45.94-8.95,54.04v.3c.18,2.24.36,3.51.42,3.87v.06c.18,1.57.42,3.08.73,4.59,1.69,7.31,4.84,13.36,9.55,18.01,7.31,7.37,17.89,11,31.55,11,18.5,0,42.62-6.77,71.57-20.25,1.03-.48,1.51-1.57,1.27-2.6-.06-.06-.06-.12-.06-.18-.36-1.09-1.51-1.75-2.66-1.51-3.26.73-6.35,1.33-9.31,1.69-7.01.97-13.24.97-18.5,0-6.59-1.09-11.85-3.63-15.78-7.56-34.76-34.76,39.89-165.99,166.41-292.5,8.76-8.76,17.59-17.29,26.35-25.57,8.76,8.28,17.59,16.8,26.35,25.57,61.6,61.6,112.73,126.15,144.11,181.82,30.4,54.1,38.57,94.48,22.3,110.68-3.93,3.93-9.19,6.47-15.72,7.56-5.32.97-11.48.97-18.5,0-2.96-.36-6.11-.97-9.37-1.69-1.15-.24-2.24.42-2.6,1.51-.06.06-.06.12,0,.18-.36,1.03.18,2.12,1.15,2.6,28.95,13.48,53.07,20.25,71.63,20.25,13.6,0,24.24-3.63,31.55-10.94,3.26-3.26,5.8-7.25,7.62-11.91,1.27-3.26,2.18-6.83,2.72-10.7v-.06c.18-1.27.3-2.54.42-3.87v-.3c.54-8.1.42-27.32-8.95-54.04.85,1.33,14.75,23.39,14.51,53.07,2.24-.48,4.35-1.09,6.35-1.81,4.71-1.75,8.7-4.29,11.97-7.62,18.19-18.13,12.39-57.36-11.97-107.96-31.98-66.37-96.05-152.51-180.01-236.47Z"/>
</svg>